PathFileType	4	(X/Y/Z)	C:\Users\WrightLab\Desktop\Jo\P5V17.trc
DataRate	CameraRate	NumFrames	NumMarkers	Units	OrigDataRate	OrigDataStartFrame	OrigNumFrames
100.00	100.00	       20	19	mm	100.00	159	       633
Frame#	Time	Headset_Front			Headset_Back			Headset_Left			Headset_Right			Left_Shoulder			Right_Shoulder			Sternum			C7			Left Elbow			Right Elbow			Left Wrist			Right Wrist			Left ASIS			Right ASIS			S2			Left Knee			Right Knee			Left Ankle			Right Ankle			
		X1	Y1	Z1	X2	Y2	Z2	X3	Y3	Z3	X4	Y4	Z4	X5	Y5	Z5	X6	Y6	Z6	X7	Y7	Z7	X8	Y8	Z8	X9	Y9	Z9	X10	Y10	Z10	X11	Y11	Z11	X12	Y12	Z12	X13	Y13	Z13	X14	Y14	Z14	X15	Y15	Z15	X16	Y16	Z16	X17	Y17	Z17	X18	Y18	Z18	X19	Y19	Z19	

159	1.580	-489.02542	955.64551	-816.87891	-345.87387	1617.38135	-534.22150							-287.65100	1454.38110	-659.36438	-699.67102	1452.18604	-589.38556	-509.29126	1296.72131	-536.88013	-519.16437	1501.15503	-738.22742	-240.81041	1177.84277	-737.24207	-819.20093	1204.71887	-665.89954	-245.85483	1127.33582	-527.04950	-746.74426	1121.29443	-458.19254	-407.43597	895.80530	-555.56024	-680.57788	935.26086	-571.56714				-429.00143	530.54181	-433.45026	-706.38574	483.61276	-699.80499	-455.13519	111.17007	-465.96591				
160	1.590				-345.95227	1617.53796	-528.79834							-288.80276	1453.86597	-652.18903	-699.43744	1452.44446	-581.06732	-509.14890	1297.19507	-530.38239	-520.24847	1501.32983	-730.97632	-241.73073	1177.71997	-732.50012	-819.36255	1204.90271	-657.65277	-245.52306	1127.73682	-522.01953	-746.08704	1121.66626	-450.21445	-407.78763	895.68219	-548.03223	-681.49908	935.11139	-564.44244				-428.76324	528.20642	-430.40561	-707.29675	482.80652	-692.76447	-458.38745	108.03428	-446.69193				
161	1.600				-345.80957	1617.63831	-521.70599							-289.75800	1454.50830	-646.61420	-699.59491	1452.03394	-573.09180	-508.32541	1298.24243	-522.62897	-521.22003	1501.45752	-723.86780	-243.09782	1178.44275	-726.84338	-820.45532	1205.09119	-649.10419	-245.31985	1128.11133	-516.40692	-747.27496	1121.66321	-442.46695	-407.10718	896.28467	-540.34338	-681.52332	935.82288	-556.75073	-489.58490	956.86072	-802.70630	-427.80756	526.31964	-427.31543	-707.97565	482.39838	-685.49542	-462.07083	105.84653	-428.37067				
162	1.610				-345.71585	1617.73340	-515.96948							-289.83545	1454.10913	-639.10992	-701.03259	1453.09351	-565.63812	-509.89545	1297.59827	-515.24585	-522.14233	1501.52454	-716.75104	-244.61671	1178.56445	-720.77979	-820.37787	1205.22754	-641.08954	-245.85663	1127.33447	-510.11093	-746.20007	1121.81873	-433.76407	-406.87335	895.75732	-533.43286	-681.47711	935.49469	-549.42749	-489.50571	957.05341	-793.93958	-426.91510	524.24854	-424.28586	-708.35876	481.18222	-678.10498	-467.25974	104.08622	-412.35352				
163	1.620				-345.39920	1617.79053	-508.88223							-290.72141	1453.88525	-633.23352	-700.83563	1453.61340	-557.06586	-510.08087	1298.76135	-508.01157	-522.94409	1501.65759	-709.23602	-245.46294	1177.87939	-715.24713	-821.13251	1205.40918	-632.96436	-245.72623	1127.71472	-504.10373	-746.04620	1121.57898	-426.02844	-406.83621	896.90405	-525.14758	-682.03998	936.04742	-541.36768	-489.89938	957.37225	-787.06970	-426.27411	522.33264	-420.63959	-709.53131	481.44464	-670.57306	-470.92661	101.40950	-396.84091				
164	1.630	-424.71268	1504.30994	-339.37582	-345.09836	1618.10925	-503.21576							-290.94000	1453.91553	-628.04572	-701.81018	1454.27502	-549.82758	-509.27676	1298.34656	-498.93811	-523.56311	1502.10730	-702.55579	-246.09396	1178.57593	-709.20044	-821.35132	1205.54773	-624.44537	-244.61412	1127.91370	-498.45963	-743.61560	1122.13379	-417.10443	-406.19327	897.19427	-517.19916	-681.96210	936.26935	-533.39996	-489.25143	956.48907	-778.15057	-425.71472	520.21204	-418.79874	-709.38660	480.41974	-662.55371	-476.43591	101.17070	-383.46228				
165	1.640				-344.68369	1618.34851	-497.70993							-291.28265	1453.95703	-621.05157	-702.36426	1454.90540	-541.71124	-511.07141	1298.27869	-493.39456	-524.26843	1501.88318	-695.33026	-247.18156	1178.05591	-702.23956	-821.67926	1206.08057	-616.40576	-244.28120	1128.32166	-492.59573	-743.49048	1122.30432	-409.11371	-406.45941	896.90729	-509.31940	-681.33185	936.06482	-525.54010	-490.35056	956.73444	-770.65863	-425.12158	517.66821	-415.49036	-709.28162	479.91235	-654.71417	-481.71008	99.89033	-371.13303				
166	1.650				-344.19489	1618.69006	-490.69467							-291.81888	1453.56714	-615.09680	-701.65631	1454.60083	-533.08234	-509.75223	1299.23718	-485.14417	-524.80481	1501.75098	-687.44965	-247.88751	1177.97168	-696.62567	-822.45575	1207.01111	-607.66931	-243.70233	1128.23828	-486.50266	-743.17841	1122.52881	-400.54279	-405.54486	897.48199	-500.91205	-682.02692	936.87201	-517.55316	-491.20175	957.50177	-762.26208	-424.79568	515.20453	-413.27921	-710.04541	479.79034	-646.47211	-488.33652	98.98805	-362.07455				
167	1.660				-343.43704	1618.45752	-483.99716							-291.91315	1453.37732	-608.86877	-700.55267	1455.22095	-524.33344	-509.12558	1299.90381	-476.62830	-525.34052	1501.64502	-680.21204	-248.29732	1177.83496	-690.35980	-822.23022	1207.58069	-598.83801	-241.29814	1129.12439	-480.36261	-742.24872	1123.08081	-392.93735	-404.78674	897.91522	-491.87213	-681.67822	937.38312	-507.84570	-491.69992	957.64050	-753.49664	-423.07144	512.64056	-409.73026	-710.07495	478.56036	-638.62201	-493.71783	96.96635	-353.29483				
168	1.670	-420.28748	1506.97119	-313.05411	-342.72241	1618.58374	-478.34964							-291.86633	1453.15259	-601.86951	-701.24786	1455.70068	-516.50616	-509.87662	1299.52917	-469.68018	-525.69336	1501.48755	-672.91559	-249.75586	1177.65881	-684.94244	-822.40399	1207.95520	-590.06799	-240.82921	1129.23596	-473.82617	-741.95251	1123.49609	-384.61435	-404.86172	898.77374	-484.86932	-680.15857	936.69257	-498.45059	-493.35193	956.88647	-746.64087	-422.94464	510.44620	-407.16431	-709.15186	478.23807	-629.41602	-500.01895	95.09271	-346.10196				
169	1.680				-341.86639	1619.14502	-472.02463							-292.31726	1452.76062	-596.25983	-700.03864	1456.09253	-508.39459	-508.61188	1301.02112	-459.67792	-525.78442	1501.24084	-664.98511	-249.91200	1176.27637	-677.63501	-822.09473	1207.45227	-581.30115	-240.46233	1129.24207	-468.47897	-742.00104	1124.37671	-376.43964	-403.68893	898.97534	-476.69427	-679.93286	936.91449	-489.09308	-493.97269	956.17340	-737.84210	-423.20358	507.12878	-404.08612	-709.45203	478.09915	-621.40985	-506.18280	93.24099	-341.33466				
170	1.690				-340.81870	1619.09302	-465.87875							-291.65826	1452.66138	-590.02856	-699.51270	1455.97961	-499.54764	-507.30890	1300.52930	-452.80246	-525.83075	1501.17761	-657.50500	-250.53160	1176.62024	-671.25446	-822.37213	1208.12744	-572.52264	-239.95865	1129.62415	-461.36472	-740.23114	1124.79248	-367.70135	-403.43863	898.93518	-467.30911	-679.80652	938.03589	-479.46478	-494.99384	956.28088	-727.43860	-422.59586	504.94495	-401.18942	-709.43378	478.07663	-612.68811	-511.55933	91.74197	-338.41605				
171	1.700	-415.36481	1509.37097	-291.70584	-339.58047	1619.00500	-458.86621							-291.47629	1452.15686	-584.57416	-699.93005	1456.78052	-491.54413	-507.05392	1300.73950	-446.07211	-525.88788	1500.69885	-650.43640	-251.07584	1175.96631	-666.10638	-822.62347	1209.07129	-563.15430	-239.15933	1129.54895	-455.11435	-739.71808	1124.25610	-358.84656	-403.04449	899.43219	-458.51239	-678.33881	937.77063	-469.56189	-495.97290	955.32806	-717.72266	-421.90088	502.12027	-397.36090	-708.87122	477.62637	-603.79785	-518.96539	87.63132	-335.91440				
172	1.710	-412.57117	1509.54236	-284.37170	-338.29669	1618.79468	-453.80270							-290.78979	1451.98438	-577.97620	-698.69714	1457.16772	-482.55521	-505.41077	1301.29126	-437.45734	-525.79834	1500.12524	-642.66425	-251.43578	1175.74133	-659.07263	-821.36005	1208.64734	-554.12518	-238.82869	1129.53625	-448.21310	-738.94714	1125.25952	-350.19824	-401.98840	899.71570	-449.56830	-677.84430	938.64630	-459.68680	-497.09546	954.35858	-708.85107	-421.84460	499.41681	-393.63553	-707.41010	477.19272	-594.64319	-523.25671	84.93443	-334.95679				
173	1.720				-336.81305	1618.06641	-446.44150							-291.06119	1451.15344	-572.19696	-697.12415	1456.85681	-473.62299	-504.63278	1301.35303	-428.25299	-525.49640	1499.40869	-634.52869	-252.03967	1174.85083	-653.07239	-821.69910	1209.39429	-545.53320	-237.21992	1129.79114	-442.11905	-737.52448	1125.83813	-341.28098	-399.69034	900.48456	-440.02228	-676.85217	938.54993	-448.10059	-498.32159	953.41742	-699.28992	-423.26669	495.67590	-390.43805	-707.03131	476.95767	-585.89685	-528.08765	83.53297	-334.35474				
174	1.730	-408.98703	1512.71082	-271.30304	-335.35806	1617.97986	-440.82385							-289.89291	1449.97473	-564.85364	-696.01489	1456.79663	-464.70151	-503.92288	1300.78687	-419.60916	-525.31610	1498.63330	-627.63678	-252.16025	1173.27991	-645.61847	-821.27325	1209.37341	-535.55627	-235.77773	1129.95837	-434.68692	-736.46820	1125.95801	-332.87372	-398.75702	900.08423	-430.52002	-675.98346	938.84369	-438.04599	-499.58606	952.56482	-690.37970	-423.40485	493.12033	-386.72537	-705.86536	477.53870	-575.69208	-529.50574	81.61495	-332.36441				
175	1.740	-406.09418	1511.99561	-263.75302	-333.82532	1617.56299	-435.21274							-289.69315	1449.41602	-559.11066	-694.66956	1457.10291	-456.05850	-502.05420	1301.80994	-410.53333	-524.87024	1497.73608	-619.90527	-252.75554	1172.89771	-639.66101	-820.90070	1209.63245	-526.27014	-235.02281	1130.15454	-428.60953	-734.96423	1126.49719	-324.03348	-398.59717	899.37286	-420.12430	-675.34875	938.89789	-427.30872	-500.98975	951.27838	-680.63910	-422.61249	490.27673	-381.93179	-705.31195	477.02737	-566.86066	-530.13715	78.25455	-332.67117				
176	1.750	-403.14005	1510.45764	-257.02188	-332.25159	1616.96301	-428.36560							-288.43460	1448.58105	-553.00201	-693.07733	1456.78040	-446.93192	-500.80032	1301.45447	-402.65964	-524.33051	1496.66479	-611.82275	-253.50203	1171.89270	-632.79974	-820.40399	1209.96436	-517.72272	-233.08754	1130.73267	-422.10773	-734.08215	1126.27002	-314.72656	-396.84872	899.48749	-410.57578	-673.75519	938.31519	-415.35526	-502.52075	949.88214	-671.08789	-424.95554	485.97699	-378.16135	-704.27454	476.88272	-556.85754	-531.32666	77.37856	-330.10654				
177	1.760	-400.59109	1510.52637	-249.49849	-330.62033	1616.52954	-423.54300							-287.56351	1448.03870	-546.46460	-691.85760	1457.38147	-439.12885	-498.49649	1301.72095	-394.30328	-523.82184	1495.65735	-604.74658	-253.14777	1170.79846	-626.47668	-820.12585	1210.45190	-508.43600	-231.65875	1130.69409	-415.37750	-732.81805	1126.72827	-305.33862	-396.12677	898.83698	-401.04196	-673.26123	938.91394	-404.30267	-504.36795	948.04749	-661.43286	-426.15067	482.46237	-373.26266	-703.07861	477.33069	-546.75861	-535.07184	76.03236	-326.46936				
178	1.770	-398.56860	1512.52905	-242.94908	-328.86746	1615.74670	-415.88895							-286.39175	1447.09814	-540.96234	-689.26733	1455.78821	-429.87103	-496.98419	1301.15723	-385.83359	-523.07086	1495.09705	-597.07245	-253.28386	1168.76074	-619.28815	-818.85059	1209.31799	-498.47812	-229.84077	1130.85376	-408.22601	-730.73041	1126.16003	-295.88657	-393.70792	899.28973	-389.95349	-672.27954	939.04950	-392.94327	-506.02777	946.76770	-651.83612	-428.00571	477.29681	-367.05145	-701.97681	477.16354	-536.72461	-537.34491	75.45713	-324.76398				
